<?xml version="1.0" encoding="UTF-8" standalone="no"?>
<svg
   width="98"
   height="96"
   version="1.1"
   id="svg1"
   sodipodi:docname="github-mark-todo.svg"
   inkscape:version="1.3.2 (091e20e, 2023-11-25)"
   xmlns:inkscape="http://www.inkscape.org/namespaces/inkscape"
   xmlns:sodipodi="http://sodipodi.sourceforge.net/DTD/sodipodi-0.dtd"
   xmlns="http://www.w3.org/2000/svg"
   xmlns:svg="http://www.w3.org/2000/svg">
  <defs
     id="defs1">
    <rect
       x="-39.253915"
       y="39.916428"
       width="83.642307"
       height="35.278835"
       id="rect1" />
  </defs>
  <sodipodi:namedview
     id="namedview1"
     pagecolor="#ffffff"
     bordercolor="#000000"
     borderopacity="0.25"
     inkscape:showpageshadow="2"
     inkscape:pageopacity="0.0"
     inkscape:pagecheckerboard="0"
     inkscape:deskcolor="#d1d1d1"
     inkscape:zoom="3.9518085"
     inkscape:cx="52.254557"
     inkscape:cy="34.161575"
     inkscape:window-width="1728"
     inkscape:window-height="975"
     inkscape:window-x="0"
     inkscape:window-y="38"
     inkscape:window-maximized="1"
     inkscape:current-layer="svg1" />
  <path
     fill-rule="evenodd"
     clip-rule="evenodd"
     d="M 48.803849,0 C 21.816581,0 0,22 0,49.217 c 0,21.756 13.978636,40.172 33.370708,46.69 2.424509,0.49 3.312596,-1.059 3.312596,-2.362 0,-1.141 -0.07992,-5.052 -0.07992,-9.127 -13.57605,2.934 -16.403145,-5.867 -16.403145,-5.867 -2.181758,-5.704 -5.414436,-7.17 -5.414436,-7.17 -4.443434,-3.015 0.323668,-3.015 0.323668,-3.015 4.928935,0.326 7.515277,5.052 7.515277,5.052 4.362517,7.496 11.392293,5.378 14.220387,4.074 0.403585,-3.178 1.697256,-5.378 3.070845,-6.6 -10.827874,-1.141 -22.220167,-5.378 -22.220167,-24.283 0,-5.378 1.938008,-9.778 5.008853,-13.2 -0.484502,-1.222 -2.181758,-6.275 0.485501,-13.038 0,0 4.120765,-1.304 13.412218,5.052 a 46.921783,46.97 0 0 1 12.201461,-1.63 c 4.120766,0 8.321449,0.571 12.200463,1.63 9.292451,-6.356 13.413217,-5.052 13.413217,-5.052 2.667259,6.763 0.969004,11.816 0.484502,13.038 3.151761,3.422 5.009852,7.822 5.009852,13.2 0,18.905 -11.392293,23.06 -22.301084,24.283 1.778173,1.548 3.312596,4.481 3.312596,9.126 0,6.6 -0.07992,11.897 -0.07992,13.526 0,1.304 0.889086,2.853 3.312596,2.364 C 83.548146,89.388 97.526782,70.973 97.526782,49.217 97.6067,22 75.710201,0 48.803849,0 Z"
     fill="#24292f"
     id="path1"
     style="stroke-width:0.999487;fill:#24292f;fill-opacity:0.22709164" />
  <text
     xml:space="preserve"
     id="text1"
     style="white-space:pre;shape-inside:url(#rect1);fill:#1a1a1a;fill-opacity:1"
     transform="matrix(1.9490897,0,0,1.9490897,80.131468,-55.549601)"><tspan
       x="-39.253906"
       y="50.863979"
       id="tspan3"><tspan
         style="font-style:italic;font-family:Monospace;-inkscape-font-specification:'Monospace Italic'"
         id="tspan2">coming </tspan></tspan><tspan
       x="-39.253906"
       y="65.987267"
       id="tspan5"><tspan
         style="font-style:italic;font-family:Monospace;-inkscape-font-specification:'Monospace Italic'"
         id="tspan4">soon...</tspan></tspan></text>
</svg>
